<?xml version="1.0" encoding="UTF-8"?>
<svg id="Layer_2" data-name="Layer 2" xmlns="http://www.w3.org/2000/svg" viewBox="0 0 131 53.16">
  <defs>
    <style>
      .cls-1 {
        fill: #ec2027;
      }

      .cls-1, .cls-2 {
        stroke-width: 0px;
      }

      .cls-2 {
        fill: #166433;
      }
    </style>
  </defs>
  <g id="Layer_3" data-name="Layer 3">
    <path class="cls-2" d="m24.27,51.47l-3.46-7.85h-12.07l-3.54,7.85H0l14.76-31.68,14.74,31.68h-5.22Zm-13.7-11.97h8.49l-3.12-6.95c-.18-.44-.37-.95-.56-1.53s-.39-1.22-.58-1.93c-.17.67-.34,1.29-.53,1.86s-.38,1.11-.57,1.59l-3.12,6.95Z"/>
    <path class="cls-2" d="m32.37,51.47v-30.47h6.68c4.34,0,7.4.22,9.17.66s3.32,1.17,4.65,2.2c1.76,1.35,3.1,3.07,4.01,5.18s1.36,4.52,1.36,7.22-.45,5.1-1.36,7.19-2.24,3.81-4.01,5.17c-1.33,1.03-2.85,1.76-4.55,2.2s-4.35.66-7.94.66h-8.01Zm4.95-4.48h4.16c2.29,0,4.01-.15,5.15-.46s2.14-.82,2.99-1.54c1.15-.99,2.02-2.21,2.59-3.67s.86-3.17.86-5.11-.29-3.65-.86-5.11-1.44-2.69-2.59-3.67c-.86-.72-1.89-1.24-3.09-1.54s-3.08-.46-5.63-.46h-3.58v21.57Z"/>
    <path class="cls-2" d="m64.01,51.8v-30.47h4.95v30.47h-4.95Z"/>
    <path class="cls-2" d="m111.26,45.37l3.96-1.83c.37,1.36,1.06,2.4,2.06,3.11s2.28,1.07,3.83,1.07c1.47,0,2.64-.41,3.51-1.23s1.3-1.92,1.3-3.29c0-1.79-1.48-3.39-4.45-4.79-.42-.21-.74-.36-.96-.46-3.36-1.64-5.6-3.12-6.71-4.44s-1.68-2.95-1.68-4.86c0-2.48.84-4.5,2.53-6.04s3.9-2.31,6.63-2.31c2.25,0,4.13.43,5.64,1.3s2.56,2.11,3.14,3.74l-3.87,2c-.61-.96-1.28-1.66-2.01-2.1s-1.56-.67-2.51-.67c-1.33,0-2.39.35-3.17,1.04s-1.18,1.62-1.18,2.79c0,1.83,1.72,3.54,5.16,5.12.26.12.47.22.62.29,3.01,1.39,5.08,2.74,6.2,4.07s1.69,2.98,1.69,4.96c0,2.89-.91,5.18-2.73,6.88s-4.27,2.55-7.37,2.55c-2.6,0-4.72-.6-6.38-1.79s-2.74-2.9-3.26-5.12Z"/>
    <g>
      <circle class="cls-1" cx="89.9" cy="36.68" r="7.98"/>
      <path class="cls-2" d="m109.88,11.61c-1.53-.37-2.93-.02-3.3,1.51l-3.32,13.94c-.2-.28-.42-.55-.63-.82l4.75-19.95c.37-1.53-.73-2.47-2.26-2.84h0c-1.53-.37-2.93-.02-3.3,1.51l-4.1,17.22c-.24-.13-.48-.27-.74-.39l4.49-18.83c.37-1.53-.73-2.47-2.26-2.84-1.53-.37-2.93-.02-3.3,1.51l-4.44,18.64c-.27-.03-.54-.05-.81-.07l3.98-16.71c.37-1.53-.73-2.47-2.26-2.84-1.53-.37-2.93-.02-3.3,1.51l-4.51,18.91c-.31.11-.62.22-.92.34l.55-4.23c.17-1.32-.29-2.8-1.43-3.61-.33-.23-.39-.36-.99-.55-2.77-.88-3.02-.77-4.03,3.47-1.17,4.89-3.97,16.66-3.97,16.66l.02-.02c-1.91,8.75,3.52,17.45,12.27,19.54,8.75,2.08,17.51-3.23,19.76-11.9v.02s6.3-26.39,6.3-26.39c.37-1.53-.73-2.47-2.26-2.84Zm-8.54,27.8c-1.51,6.32-7.85,10.22-14.17,8.71-6.32-1.51-10.22-7.85-8.71-14.17,1.51-6.32,7.85-10.22,14.17-8.71,6.32,1.51,10.22,7.85,8.71,14.17Z"/>
    </g>
  </g>
</svg>